<svg width="0" height="0" class="hidden">
  <symbol version="1.0" xmlns="http://www.w3.org/2000/svg" preserveAspectRatio="xMidYMid meet" viewBox="0 0 300.000000 300.000000" id="cv">
    <g transform="translate(0.000000,300.000000) scale(0.100000,-0.100000)" fill="current" stroke="current">
      <path d="M600 2901 c-85 -26 -172 -97 -208 -168 -11 -21 -25 -62 -31 -91 -16
    -75 -16 -2209 0 -2284 23 -105 82 -183 181 -235 l53 -28 905 0 905 0 53 28
    c99 52 158 130 181 235 16 75 16 2209 0 2284 -23 105 -82 183 -181 235 l-53
    28 -890 2 c-490 1 -901 -2 -915 -6z m1787 -183 c17 -10 42 -32 55 -50 l23 -33
    0 -1135 0 -1135 -23 -33 c-51 -71 9 -67 -943 -67 l-855 0 -41 27 c-78 52 -73
    -38 -73 1210 0 1064 1 1115 19 1148 22 42 57 69 102 80 19 5 410 8 869 7 772
    -2 837 -3 867 -19z"></path>
      <path d="M1389 2467 c-61 -18 -142 -70 -179 -117 -94 -119 -104 -290 -24 -412
    13 -21 24 -41 24 -45 0 -5 -25 -24 -56 -43 -79 -49 -185 -165 -223 -241 -46
    -95 -65 -181 -51 -225 22 -65 16 -65 619 -62 l539 3 26 24 c20 19 26 34 26 65
    0 57 -49 191 -94 259 -45 68 -142 160 -199 188 -23 12 -43 23 -45 24 -2 2 8
    20 22 42 61 92 76 221 36 325 -61 162 -256 262 -421 215z m170 -191 c141 -73
    126 -277 -24 -326 -80 -27 -182 21 -215 100 -32 77 8 187 82 223 41 21 120 22
    157 3z m51 -532 c99 -29 201 -110 257 -203 l24 -41 -405 0 c-223 0 -406 3
    -406 7 0 3 14 28 31 55 54 84 145 153 244 184 57 18 191 17 255 -2z"></path>
      <path d="M753 1050 c-37 -15 -55 -77 -37 -125 18 -45 20 -45 784 -45 764 0
    766 0 784 45 12 32 6 83 -13 106 l-19 24 -739 2 c-413 1 -748 -2 -760 -7z"></path>
      <path d="M754 696 c-35 -16 -44 -32 -44 -82 0 -24 8 -43 25 -59 l24 -25 741 0
    741 0 24 25 c27 26 34 80 15 115 -21 39 -50 40 -784 40 -574 -1 -717 -3 -742
    -14z"></path>
    </g>
  </symbol>
</svg>