<!-- LOGO -->
<svg width="0" height="0" class="hidden">
  <symbol version="1.0" xmlns="http://www.w3.org/2000/svg" preserveAspectRatio="xMidYMid meet" viewBox="0 0 1172.000000 298.000000" id="logo">
    <g transform="translate(0.000000,298.000000) scale(0.100000,-0.100000)" fill="current" stroke="current">
      <path d="M1025 2831 c-156 -72 -151 -289 8 -356 l37 -15 0 -244 c0 -265 -1
-270 -60 -278 -23 -3 -25 -8 -28 -60 -3 -53 -6 -60 -39 -85 -94 -72 -127 -109
-161 -182 -30 -66 -34 -81 -28 -129 19 -158 153 -271 334 -280 78 -4 87 -3
146 28 90 45 133 84 166 151 25 49 30 70 30 131 0 93 -20 133 -110 223 l-70
69 -45 -44 c-66 -64 -66 -74 -7 -126 57 -50 77 -96 69 -156 -8 -56 -44 -104
-101 -133 -64 -32 -118 -32 -182 0 -86 43 -124 136 -90 216 16 38 99 119 122
119 24 0 153 120 174 160 19 37 20 59 20 343 l0 304 26 24 c15 13 35 42 45 64
75 162 -94 331 -256 256z"></path>
      <path d="M984 2425 c-4 -9 -2 -21 4 -27 15 -15 44 -1 40 19 -4 23 -36 29 -44
8z"></path>
      <path d="M984 2327 c-3 -8 -4 -43 -2 -78 3 -56 5 -64 23 -64 18 0 20 7 20 75
0 63 -3 75 -18 78 -9 2 -20 -3 -23 -11z"></path>
      <path d="M592 2295 c-44 -37 -58 -77 -43 -126 7 -22 21 -45 31 -52 16 -10 20
-23 20 -72 l0 -60 -260 -260 c-258 -259 -260 -261 -260 -303 0 -24 9 -59 19
-80 11 -20 172 -189 358 -375 l339 -337 105 0 104 0 76 78 c149 152 175 229
100 303 -34 34 -45 39 -84 39 -38 0 -52 -6 -81 -34 -32 -30 -36 -39 -36 -84 0
-28 5 -54 10 -57 18 -11 11 -38 -17 -67 -22 -23 -35 -28 -77 -28 l-51 0 -248
248 c-136 136 -247 253 -247 259 0 7 20 13 53 15 44 3 52 6 52 23 0 17 -8 21
-50 25 -42 4 -50 8 -50 25 0 17 8 21 50 25 42 4 50 8 50 25 0 18 -8 21 -75 25
-63 4 -75 8 -78 24 -3 13 57 79 201 225 113 113 212 220 221 238 10 20 16 57
16 98 0 46 6 78 20 105 24 47 25 71 5 110 -36 69 -119 91 -173 45z"></path>
      <path d="M1494 2310 c-11 -4 -33 -22 -47 -40 -34 -40 -37 -105 -7 -143 16 -21
20 -40 20 -111 l0 -86 66 -70 c43 -45 74 -70 88 -70 24 0 86 58 86 80 0 8 -21
36 -47 62 -42 42 -47 52 -51 103 -4 51 -2 59 23 84 35 38 44 98 19 140 -29 50
-96 73 -150 51z"></path>
      <path d="M994 2107 c-11 -29 0 -102 16 -102 19 0 22 106 3 112 -7 3 -16 -2
-19 -10z"></path>
      <path d="M1770 2035 c-26 -32 13 -81 48 -59 34 22 22 74 -18 74 -10 0 -23 -7
-30 -15z"></path>
      <path d="M374 2026 c-10 -26 4 -48 28 -44 17 2 23 10 23 28 0 18 -6 26 -23 28
-13 2 -25 -3 -28 -12z"></path>
      <path d="M220 1900 c-25 -25 -26 -62 -2 -83 39 -35 102 -9 102 41 0 28 -34 62
-60 62 -11 0 -29 -9 -40 -20z"></path>
      <path d="M1897 1902 c-33 -36 -8 -92 40 -92 25 0 53 30 53 57 0 46 -62 69 -93
35z"></path>
      <path d="M1702 1787 c-23 -23 -42 -49 -42 -58 0 -8 52 -66 115 -129 63 -63
115 -120 115 -127 0 -26 -41 -34 -138 -29 -53 2 -116 8 -140 11 -49 8 -72 -6
-92 -56 -15 -35 0 -81 34 -104 23 -17 92 -20 101 -5 3 6 44 10 91 10 68 0 86
-3 91 -16 4 -11 -59 -81 -223 -245 -180 -181 -236 -231 -264 -238 -19 -4 -57
-13 -85 -20 -53 -13 -125 -71 -125 -101 0 -9 12 -27 26 -41 23 -22 34 -24 112
-24 63 0 95 5 117 17 17 9 184 171 373 360 l342 344 0 74 0 75 -173 173 c-95
94 -177 172 -183 172 -5 0 -29 -19 -52 -43z"></path>
      <path d="M2042 1767 c-28 -30 -28 -58 1 -85 30 -28 68 -28 95 1 28 30 28 58
-1 85 -30 28 -68 28 -95 -1z"></path>
      <path d="M4907 1780 c-62 -20 -76 -65 -32 -106 l25 -23 0 -216 c0 -255 -2
-263 -82 -293 -60 -22 -79 -43 -62 -69 8 -12 21 -17 40 -15 117 13 157 7 279
-43 112 -47 126 -50 207 -50 72 0 91 3 115 21 58 43 32 144 -37 144 -15 0 -44
-14 -65 -30 -46 -36 -73 -44 -121 -35 -54 10 -81 25 -93 52 -7 15 -11 113 -11
278 l0 253 25 30 c52 63 18 103 -93 108 -37 2 -80 -1 -95 -6z"></path>
      <path d="M7834 1781 c-96 -25 -182 -99 -232 -201 -24 -49 -27 -66 -27 -155 0
-91 3 -106 31 -166 53 -111 142 -179 262 -198 76 -12 167 0 228 30 107 54 195
216 134 249 -30 16 -56 4 -70 -33 -38 -104 -69 -142 -139 -165 -104 -36 -196
15 -237 130 -35 100 -27 273 17 360 31 60 65 81 127 76 63 -6 93 -30 129 -105
28 -58 50 -71 92 -53 40 16 55 53 37 89 -21 39 -83 93 -140 121 -52 25 -157
35 -212 21z"></path>
      <path d="M2885 1775 c-5 -2 -29 -9 -53 -15 -90 -23 -143 -101 -122 -180 23
-85 107 -146 310 -224 111 -42 153 -66 175 -100 15 -22 15 -27 1 -53 -8 -17
-32 -37 -58 -49 -88 -39 -300 -15 -362 42 -43 40 -34 53 41 60 58 5 83 27 83
70 0 69 -82 98 -150 52 -49 -34 -72 -71 -77 -125 -4 -39 0 -55 19 -83 57 -84
149 -115 338 -114 157 0 222 19 281 80 33 34 34 38 34 112 0 69 -3 82 -30 122
-36 53 -108 99 -215 138 -111 40 -192 83 -215 115 l-20 29 27 23 c50 43 189
42 232 -1 8 -8 18 -31 22 -52 9 -48 30 -72 66 -72 41 0 68 32 68 81 0 56 -53
110 -130 133 -48 14 -234 22 -265 11z"></path>
      <path d="M3440 1773 c-54 -21 -63 -60 -25 -105 l25 -30 0 -223 0 -223 -26 -31
c-52 -62 -3 -111 111 -111 113 0 169 55 110 110 -23 21 -25 31 -25 106 0 72 3
86 23 110 45 52 176 42 207 -15 5 -11 10 -53 10 -95 0 -65 -3 -78 -26 -105
-52 -62 -3 -111 111 -111 113 0 169 55 110 110 l-25 23 0 232 0 232 25 23 c31
29 32 61 4 86 -16 14 -40 20 -99 22 -135 7 -185 -38 -125 -110 23 -27 25 -38
25 -120 0 -82 -2 -89 -17 -83 -59 25 -147 25 -205 0 -16 -6 -18 1 -18 87 0 88
2 96 25 118 31 29 32 61 4 86 -17 15 -39 19 -103 21 -44 1 -88 0 -96 -4z"></path>
      <path d="M4303 1750 c-75 -38 -125 -92 -167 -179 -29 -62 -31 -73 -31 -181 0
-112 1 -117 34 -178 36 -66 65 -94 141 -133 39 -21 59 -24 155 -24 132 0 190
21 255 91 67 73 84 122 84 244 1 101 0 108 -36 182 -66 139 -154 200 -293 206
-73 3 -85 1 -142 -28z m171 -54 c76 -31 126 -143 134 -292 5 -118 -11 -183
-58 -231 -73 -74 -200 -56 -253 36 -39 65 -39 238 -2 352 20 59 57 109 98 132
38 21 39 21 81 3z"></path>
      <path d="M4383 1465 c-38 -38 -38 -61 0 -102 29 -32 54 -37 85 -17 61 40 68
81 21 125 -41 38 -63 37 -106 -6z"></path>
      <path d="M5705 1755 c-37 -36 -34 -43 35 -95 l25 -18 -56 -59 c-158 -166 -269
-388 -269 -539 0 -58 27 -94 72 -94 51 0 70 28 78 121 16 168 42 229 111 264
38 20 68 19 106 -5 41 -25 63 -59 70 -110 5 -34 2 -44 -21 -65 -60 -56 -17
-97 108 -102 136 -7 191 40 129 110 -24 27 -42 80 -97 273 -38 131 -77 255
-88 275 -27 48 -65 69 -127 69 -42 0 -57 -5 -76 -25z m103 -282 l20 -73 -20
11 c-12 6 -43 9 -69 7 -27 -3 -49 -2 -49 2 0 10 91 133 95 128 1 -1 12 -36 23
-75z"></path>
      <path d="M6165 1755 c-36 -35 -33 -79 6 -116 l30 -28 -3 -215 -3 -214 -27 -26
c-35 -32 -35 -59 -2 -85 39 -31 107 -29 139 4 32 31 31 34 -5 80 l-30 38 2
185 c3 161 5 186 20 195 44 28 97 -43 158 -212 87 -243 150 -311 288 -311 33
0 45 6 67 32 33 39 29 82 -11 114 l-25 21 3 216 3 216 28 28 c32 34 34 56 7
83 -15 15 -33 20 -74 20 -47 0 -57 -4 -75 -26 -27 -34 -27 -34 9 -79 l30 -38
0 -166 c0 -240 -18 -250 -90 -51 -58 157 -94 223 -157 280 -61 56 -125 80
-210 80 -44 0 -58 -5 -78 -25z"></path>
      <path d="M6930 1769 c-19 -6 -41 -15 -47 -21 -21 -17 -15 -53 12 -82 l25 -27
0 -230 0 -229 -25 -22 c-16 -13 -25 -32 -25 -50 0 -41 46 -62 135 -62 122 0
169 47 110 110 l-25 27 0 228 0 228 25 27 c34 36 30 74 -9 92 -37 18 -132 24
-176 11z"></path>
      <path d="M8485 1750 c-136 -68 -215 -223 -202 -395 10 -127 77 -230 180 -276
45 -21 68 -24 162 -24 107 0 112 1 174 35 117 63 166 163 159 323 -3 77 -9
103 -35 157 -42 88 -92 143 -165 179 -52 27 -72 31 -137 31 -64 0 -85 -5 -136
-30z m162 -51 c87 -33 147 -167 148 -329 0 -75 -4 -92 -30 -145 -36 -72 -74
-97 -145 -97 -69 0 -109 25 -142 91 -24 47 -28 66 -28 140 0 94 19 191 49 249
26 51 78 97 113 101 4 1 19 -4 35 -10z"></path>
      <path d="M8569 1471 c-16 -16 -29 -39 -29 -51 0 -31 27 -66 60 -80 25 -10 34
-10 55 4 33 22 55 66 45 92 -11 28 -57 64 -82 64 -11 0 -33 -13 -49 -29z"></path>
      <path d="M9040 1763 c-45 -23 -49 -48 -13 -85 27 -28 28 -35 31 -134 4 -98 5
-105 29 -124 34 -27 76 -25 110 4 27 23 28 28 31 134 4 125 12 140 79 148 150
19 257 -212 193 -417 -33 -108 -102 -163 -201 -163 -103 1 -185 62 -177 131 7
62 68 50 68 -14 0 -38 37 -83 68 -83 52 0 87 86 57 137 -30 51 -79 76 -148 77
-178 2 -224 -177 -71 -273 95 -61 272 -67 386 -14 86 41 132 83 168 157 90
182 22 405 -152 502 -53 29 -55 29 -238 32 -162 2 -189 1 -220 -15z"></path>
      <path d="M9963 1762 c-167 -60 -266 -234 -235 -414 36 -207 217 -335 422 -298
83 15 126 38 178 94 41 44 82 121 82 152 0 7 -11 21 -24 29 -35 23 -60 6 -82
-57 -54 -149 -225 -198 -316 -90 -31 37 -68 131 -68 172 0 29 2 30 43 30 23 0
77 -5 121 -12 77 -12 79 -11 98 12 23 29 20 48 -12 71 -21 15 -34 16 -80 9
-30 -4 -81 -11 -112 -14 l-58 -6 0 38 c0 67 29 143 70 184 31 32 45 38 78 38
72 0 84 -10 153 -127 24 -42 62 -52 97 -26 44 33 40 65 -14 123 -89 95 -227
133 -341 92z"></path>
      <path d="M10596 1761 c-179 -59 -173 -231 11 -329 32 -16 112 -51 178 -77 130
-52 158 -68 174 -103 16 -34 -9 -74 -61 -98 -91 -41 -292 -16 -361 46 -39 35
-30 49 39 56 49 4 81 25 84 54 11 80 -75 119 -150 68 -49 -34 -72 -71 -77
-125 -4 -39 0 -55 19 -83 57 -84 149 -115 338 -114 162 0 226 19 284 84 34 38
36 44 36 108 0 58 -4 75 -29 114 -43 67 -106 105 -288 173 -134 50 -189 112
-130 149 52 33 178 31 216 -5 11 -10 23 -36 27 -56 9 -49 30 -73 66 -73 39 0
68 32 68 76 0 54 -28 91 -90 122 -49 24 -68 27 -175 29 -96 2 -132 -1 -179
-16z"></path>
      <path d="M77 1752 c-33 -36 -8 -92 40 -92 25 0 53 30 53 57 0 46 -62 69 -93
35z"></path>
      <path d="M539 1455 c-52 -28 -61 -103 -19 -145 74 -74 199 5 160 101 -22 52
-88 73 -141 44z"></path>
      <path d="M2057 1152 c-22 -24 -21 -55 1 -75 24 -22 45 -21 65 1 22 24 21 55
-1 75 -24 22 -45 21 -65 -1z"></path>
      <path d="M76 1144 c-31 -30 -9 -84 34 -84 24 0 50 26 50 50 0 24 -26 50 -50
50 -10 0 -26 -7 -34 -16z"></path>
      <path d="M1897 1002 c-33 -36 -8 -92 40 -92 25 0 53 30 53 57 0 46 -62 69 -93
35z"></path>
      <path d="M217 992 c-22 -24 -21 -45 1 -65 24 -22 55 -21 75 1 22 24 21 45 -1
65 -24 22 -55 21 -75 -1z"></path>
      <path d="M370 835 c-26 -32 13 -81 48 -59 34 22 22 74 -18 74 -10 0 -23 -7
-30 -15z"></path>
      <path d="M1762 838 c-28 -28 -3 -72 39 -66 30 4 47 33 33 56 -14 21 -55 27
-72 10z"></path>
      <path d="M556 648 c-9 -12 -16 -29 -16 -38 0 -9 7 -26 16 -38 23 -33 73 -27
94 11 13 24 13 30 0 55 -21 37 -71 43 -94 10z"></path>
      <path d="M1560 650 c-25 -25 -26 -52 -2 -73 38 -35 102 -9 102 40 0 25 -30 53
-58 53 -12 0 -31 -9 -42 -20z"></path>
      <path d="M1025 461 c-48 -22 -69 -44 -90 -94 -20 -49 -19 -90 4 -135 23 -46
46 -67 94 -87 146 -61 300 93 229 231 -24 48 -47 69 -95 89 -48 20 -93 19
-142 -4z"></path>
    </g>
  </symbol>
</svg>

<!-- SMALL LOGO -->

<svg width="0" height="0" class="hidden">
  <symbol version="1.0" xmlns="http://www.w3.org/2000/svg" preserveAspectRatio="xMidYMid meet" viewBox="0 0 232.000000 298.000000" id="smallLogo">
    <g transform="translate(0.000000,298.000000) scale(0.100000,-0.100000)" fill="current" stroke="current">
      <path d="M1025 2831 c-156 -72 -151 -289 8 -356 l37 -15 0 -244 c0 -265 -1
-270 -60 -278 -23 -3 -25 -8 -28 -60 -3 -53 -6 -60 -39 -85 -94 -72 -127 -109
-161 -182 -30 -66 -34 -81 -28 -129 19 -158 153 -271 334 -280 78 -4 87 -3
146 28 90 45 133 84 166 151 25 49 30 70 30 131 0 93 -20 133 -110 223 l-70
69 -45 -44 c-66 -64 -66 -74 -7 -126 57 -50 77 -96 69 -156 -8 -56 -44 -104
-101 -133 -64 -32 -118 -32 -182 0 -86 43 -124 136 -90 216 16 38 99 119 122
119 24 0 153 120 174 160 19 37 20 59 20 343 l0 304 26 24 c15 13 35 42 45 64
75 162 -94 331 -256 256z"></path>
      <path d="M984 2425 c-4 -9 -2 -21 4 -27 15 -15 44 -1 40 19 -4 23 -36 29 -44
8z"></path>
      <path d="M984 2327 c-3 -8 -4 -43 -2 -78 3 -56 5 -64 23 -64 18 0 20 7 20 75
0 63 -3 75 -18 78 -9 2 -20 -3 -23 -11z"></path>
      <path d="M592 2295 c-44 -37 -58 -77 -43 -126 7 -22 21 -45 31 -52 16 -10 20
-23 20 -72 l0 -60 -260 -260 c-258 -259 -260 -261 -260 -303 0 -24 9 -59 19
-80 11 -20 172 -189 358 -375 l339 -337 105 0 104 0 76 78 c149 152 175 229
100 303 -34 34 -45 39 -84 39 -38 0 -52 -6 -81 -34 -32 -30 -36 -39 -36 -84 0
-28 5 -54 10 -57 18 -11 11 -38 -17 -67 -22 -23 -35 -28 -77 -28 l-51 0 -248
248 c-136 136 -247 253 -247 259 0 7 20 13 53 15 44 3 52 6 52 23 0 17 -8 21
-50 25 -42 4 -50 8 -50 25 0 17 8 21 50 25 42 4 50 8 50 25 0 18 -8 21 -75 25
-63 4 -75 8 -78 24 -3 13 57 79 201 225 113 113 212 220 221 238 10 20 16 57
16 98 0 46 6 78 20 105 24 47 25 71 5 110 -36 69 -119 91 -173 45z"></path>
      <path d="M1494 2310 c-11 -4 -33 -22 -47 -40 -34 -40 -37 -105 -7 -143 16 -21
20 -40 20 -111 l0 -86 66 -70 c43 -45 74 -70 88 -70 24 0 86 58 86 80 0 8 -21
36 -47 62 -42 42 -47 52 -51 103 -4 51 -2 59 23 84 35 38 44 98 19 140 -29 50
-96 73 -150 51z"></path>
      <path d="M994 2107 c-11 -29 0 -102 16 -102 19 0 22 106 3 112 -7 3 -16 -2
-19 -10z"></path>
      <path d="M1770 2035 c-26 -32 13 -81 48 -59 34 22 22 74 -18 74 -10 0 -23 -7
-30 -15z"></path>
      <path d="M374 2026 c-10 -26 4 -48 28 -44 17 2 23 10 23 28 0 18 -6 26 -23 28
-13 2 -25 -3 -28 -12z"></path>
      <path d="M220 1900 c-25 -25 -26 -62 -2 -83 39 -35 102 -9 102 41 0 28 -34 62
-60 62 -11 0 -29 -9 -40 -20z"></path>
      <path d="M1897 1902 c-33 -36 -8 -92 40 -92 25 0 53 30 53 57 0 46 -62 69 -93
35z"></path>
      <path d="M1702 1787 c-23 -23 -42 -49 -42 -58 0 -8 52 -66 115 -129 63 -63
115 -120 115 -127 0 -26 -41 -34 -138 -29 -53 2 -116 8 -140 11 -49 8 -72 -6
-92 -56 -15 -35 0 -81 34 -104 23 -17 92 -20 101 -5 3 6 44 10 91 10 68 0 86
-3 91 -16 4 -11 -59 -81 -223 -245 -180 -181 -236 -231 -264 -238 -19 -4 -57
-13 -85 -20 -53 -13 -125 -71 -125 -101 0 -9 12 -27 26 -41 23 -22 34 -24 112
-24 63 0 95 5 117 17 17 9 184 171 373 360 l342 344 0 74 0 75 -173 173 c-95
94 -177 172 -183 172 -5 0 -29 -19 -52 -43z"></path>
      <path d="M2042 1767 c-28 -30 -28 -58 1 -85 30 -28 68 -28 95 1 28 30 28 58
-1 85 -30 28 -68 28 -95 -1z"></path>
      <path d="M77 1752 c-33 -36 -8 -92 40 -92 25 0 53 30 53 57 0 46 -62 69 -93
35z"></path>
      <path d="M539 1455 c-52 -28 -61 -103 -19 -145 74 -74 199 5 160 101 -22 52
-88 73 -141 44z"></path>
      <path d="M2057 1152 c-22 -24 -21 -55 1 -75 24 -22 45 -21 65 1 22 24 21 55
-1 75 -24 22 -45 21 -65 -1z"></path>
      <path d="M76 1144 c-31 -30 -9 -84 34 -84 24 0 50 26 50 50 0 24 -26 50 -50
50 -10 0 -26 -7 -34 -16z"></path>
      <path d="M1897 1002 c-33 -36 -8 -92 40 -92 25 0 53 30 53 57 0 46 -62 69 -93
35z"></path>
      <path d="M217 992 c-22 -24 -21 -45 1 -65 24 -22 55 -21 75 1 22 24 21 45 -1
65 -24 22 -55 21 -75 -1z"></path>
      <path d="M370 835 c-26 -32 13 -81 48 -59 34 22 22 74 -18 74 -10 0 -23 -7
-30 -15z"></path>
      <path d="M1762 838 c-28 -28 -3 -72 39 -66 30 4 47 33 33 56 -14 21 -55 27
-72 10z"></path>
      <path d="M556 648 c-9 -12 -16 -29 -16 -38 0 -9 7 -26 16 -38 23 -33 73 -27
94 11 13 24 13 30 0 55 -21 37 -71 43 -94 10z"></path>
      <path d="M1560 650 c-25 -25 -26 -52 -2 -73 38 -35 102 -9 102 40 0 25 -30 53
-58 53 -12 0 -31 -9 -42 -20z"></path>
      <path d="M1025 461 c-48 -22 -69 -44 -90 -94 -20 -49 -19 -90 4 -135 23 -46
46 -67 94 -87 146 -61 300 93 229 231 -24 48 -47 69 -95 89 -48 20 -93 19
-142 -4z"></path>
    </g>
  </symbol>
</svg>